<svg id="visual" viewBox="0 0 900 600" width="900" height="600" xmlns="http://www.w3.org/2000/svg" xmlns:xlink="http://www.w3.org/1999/xlink" version="1.1"><rect x="0" y="0" width="900" height="600" fill="#91C4F2"></rect><defs><linearGradient id="grad1_0" x1="33.3%" y1="0%" x2="100%" y2="100%"><stop offset="20%" stop-color="#91c4f2" stop-opacity="1"></stop><stop offset="80%" stop-color="#91c4f2" stop-opacity="1"></stop></linearGradient></defs><defs><linearGradient id="grad2_0" x1="0%" y1="0%" x2="66.7%" y2="100%"><stop offset="20%" stop-color="#91c4f2" stop-opacity="1"></stop><stop offset="80%" stop-color="#91c4f2" stop-opacity="1"></stop></linearGradient></defs><g transform="translate(900, 0)"><path d="M0 351.5C-34.7 339.2 -69.3 326.9 -102.3 314.8C-135.3 302.7 -166.6 290.8 -199.3 274.3C-232 257.7 -266.1 236.6 -284.4 206.6C-302.7 176.7 -305.3 137.9 -313.8 102C-322.4 66.1 -337 33 -351.5 0L0 0Z" fill="#9D79BC"></path></g><g transform="translate(0, 600)"><path d="M0 -351.5C39.2 -352.3 78.4 -353.1 108.6 -334.3C138.8 -315.5 160 -277.1 179.9 -247.6C199.7 -218 218.1 -197.4 241.9 -175.7C265.6 -154.1 294.7 -131.4 313.8 -102C333 -72.5 342.3 -36.3 351.5 0L0 0Z" fill="#9D79BC"></path></g></svg>