<svg id="visual" viewBox="0 0 650 550" width="650" height="550" xmlns="http://www.w3.org/2000/svg" xmlns:xlink="http://www.w3.org/1999/xlink" version="1.1"><g transform="translate(314.8533916064187 260.4318937123676)"><path d="M145.1 -148.7C201.5 -125.6 270 -92.7 289.3 -42.3C308.5 8 278.5 75.8 229.5 105.9C180.4 136 112.2 128.6 54.6 149.2C-3 169.7 -50.1 218.3 -89.7 216.8C-129.4 215.2 -161.7 163.6 -199.8 109.6C-238 55.5 -282 -1 -273.9 -48.5C-265.7 -96 -205.5 -134.6 -151.2 -158C-96.8 -181.4 -48.4 -189.7 -2 -187.3C44.4 -184.9 88.7 -171.7 145.1 -148.7" fill="#9fcfd0"></path></g></svg>