<svg id="visual" viewBox="0 0 650 550" width="650" height="550" xmlns="http://www.w3.org/2000/svg" xmlns:xlink="http://www.w3.org/1999/xlink" version="1.1"><g transform="translate(369.1365054226543 274.82631731544666)"><path d="M131.4 -133.4C175.4 -119.7 219.7 -83.1 224.5 -41.7C229.4 -0.2 194.8 46.2 165.8 95.1C136.8 144 113.4 195.6 78.7 202.1C44 208.6 -1.9 170.1 -65 156.6C-128.1 143.2 -208.2 154.9 -256.7 123C-305.1 91.1 -321.8 15.7 -309.2 -54.3C-296.6 -124.3 -254.7 -188.9 -198.3 -200.5C-141.8 -212 -70.9 -170.5 -13.6 -154.2C43.7 -138 87.4 -147.2 131.4 -133.4" fill="#9fcfd0"></path></g></svg>