<svg class="svg-icon" style="width: 1em; height: 1em;vertical-align: middle;fill: currentColor;overflow: hidden;" viewBox="0 0 1024 1024" version="1.1" xmlns="http://www.w3.org/2000/svg"><path d="M496 320h-192c-19.2 0-32-12.8-32-32s12.8-32 32-32h192c19.2 0 32 12.8 32 32s-12.8 32-32 32zM720 544h-416c-19.2 0-32-12.8-32-32s12.8-32 32-32h416c19.2 0 32 12.8 32 32s-12.8 32-32 32zM720 768h-416c-19.2 0-32-12.8-32-32s12.8-32 32-32h416c19.2 0 32 12.8 32 32s-12.8 32-32 32z"  /><path d="M800 992H224c-54.4 0-96-41.6-96-96V128c0-54.4 41.6-96 96-96h512c89.6 0 160 70.4 160 160v704c0 54.4-41.6 96-96 96zM224 96c-19.2 0-32 12.8-32 32v768c0 19.2 12.8 32 32 32h576c19.2 0 32-12.8 32-32V192c0-54.4-41.6-96-96-96H224z"  /></svg>