<svg id="visual" viewBox="0 0 900 600" width="900" height="600" xmlns="http://www.w3.org/2000/svg" xmlns:xlink="http://www.w3.org/1999/xlink" version="1.1"><rect x="0" y="0" width="900" height="600" fill="#C0C5C1"></rect><path d="M0 423L21.5 412C43 401 86 379 128.8 369.2C171.7 359.3 214.3 361.7 257.2 369C300 376.3 343 388.7 385.8 389.2C428.7 389.7 471.3 378.3 514.2 382.3C557 386.3 600 405.7 642.8 411.5C685.7 417.3 728.3 409.7 771.2 405.8C814 402 857 402 878.5 402L900 402L900 601L878.5 601C857 601 814 601 771.2 601C728.3 601 685.7 601 642.8 601C600 601 557 601 514.2 601C471.3 601 428.7 601 385.8 601C343 601 300 601 257.2 601C214.3 601 171.7 601 128.8 601C86 601 43 601 21.5 601L0 601Z" fill="#7899d4"></path><path d="M0 401L21.5 403.2C43 405.3 86 409.7 128.8 410.7C171.7 411.7 214.3 409.3 257.2 418.2C300 427 343 447 385.8 448.5C428.7 450 471.3 433 514.2 430.5C557 428 600 440 642.8 437.8C685.7 435.7 728.3 419.3 771.2 423.2C814 427 857 451 878.5 463L900 475L900 601L878.5 601C857 601 814 601 771.2 601C728.3 601 685.7 601 642.8 601C600 601 557 601 514.2 601C471.3 601 428.7 601 385.8 601C343 601 300 601 257.2 601C214.3 601 171.7 601 128.8 601C86 601 43 601 21.5 601L0 601Z" fill="#7979ba"></path><path d="M0 480L21.5 477C43 474 86 468 128.8 467.8C171.7 467.7 214.3 473.3 257.2 480.2C300 487 343 495 385.8 490.3C428.7 485.7 471.3 468.3 514.2 468.8C557 469.3 600 487.7 642.8 487.3C685.7 487 728.3 468 771.2 457.7C814 447.3 857 445.7 878.5 444.8L900 444L900 601L878.5 601C857 601 814 601 771.2 601C728.3 601 685.7 601 642.8 601C600 601 557 601 514.2 601C471.3 601 428.7 601 385.8 601C343 601 300 601 257.2 601C214.3 601 171.7 601 128.8 601C86 601 43 601 21.5 601L0 601Z" fill="#7b5899"></path><path d="M0 508L21.5 504.7C43 501.3 86 494.7 128.8 494.5C171.7 494.3 214.3 500.7 257.2 502.3C300 504 343 501 385.8 496.8C428.7 492.7 471.3 487.3 514.2 487.5C557 487.7 600 493.3 642.8 499.7C685.7 506 728.3 513 771.2 519C814 525 857 530 878.5 532.5L900 535L900 601L878.5 601C857 601 814 601 771.2 601C728.3 601 685.7 601 642.8 601C600 601 557 601 514.2 601C471.3 601 428.7 601 385.8 601C343 601 300 601 257.2 601C214.3 601 171.7 601 128.8 601C86 601 43 601 21.5 601L0 601Z" fill="#793572"></path><path d="M0 541L21.5 539.8C43 538.7 86 536.3 128.8 535.8C171.7 535.3 214.3 536.7 257.2 537.8C300 539 343 540 385.8 543C428.7 546 471.3 551 514.2 555.2C557 559.3 600 562.7 642.8 559.5C685.7 556.3 728.3 546.7 771.2 540.3C814 534 857 531 878.5 529.5L900 528L900 601L878.5 601C857 601 814 601 771.2 601C728.3 601 685.7 601 642.8 601C600 601 557 601 514.2 601C471.3 601 428.7 601 385.8 601C343 601 300 601 257.2 601C214.3 601 171.7 601 128.8 601C86 601 43 601 21.5 601L0 601Z" fill="#700548"></path></svg>