<?xml version="1.0" encoding="utf-8"?>
<!-- Svg Vector Icons : http://www.onlinewebfonts.com/icon -->
<!DOCTYPE svg PUBLIC "-//W3C//DTD SVG 1.1//EN" "http://www.w3.org/Graphics/SVG/1.1/DTD/svg11.dtd">
<svg version="1.1" xmlns="http://www.w3.org/2000/svg" xmlns:xlink="http://www.w3.org/1999/xlink" x="0px" y="0px" viewBox="0 0 1000 1000" enable-background="new 0 0 1000 1000" xml:space="preserve">
<metadata> Svg Vector Icons : http://www.onlinewebfonts.com/icon </metadata>
<g><path d="M265.7,485.4c0.9-2.1,0.9-4.4,1.4-6.6c0.4-1.3,0.7-2.6,0.9-4c0.2-2.7,0.1-5.4-0.3-8.1c-0.2-1.4,0.2-2.8-0.2-4.2c-0.2-0.8-0.7-1.4-1-2.2c-0.5-1.6-1.3-2.9-2-4.4c-1.5-3-3-5.7-5.2-8.2c-0.3-0.3-0.7-0.6-1-0.9c-3.2-3.4-6.9-5.8-11-7.7c-37.9-16.9-62.4-54.5-62.4-95.9c0-48.7,33-90.7,80.3-102.1c18.9-4.6,30.3-23.5,25.8-42.2c-4.6-18.9-23.6-30.2-42.2-25.8C170.1,192,115,262,115,343.2c0,44.4,16.8,85.9,45.5,117.5C69.5,507.8,10,602.2,10,709.1v54.1c0,19.3,15.6,35,35,35c19.3,0,35-15.7,35-35v-54.1c0-96.9,65-179.9,158.4-203.4C250.1,504,260.6,496.8,265.7,485.4z"/><path d="M839.5,460.6c28.6-31.6,45.4-73.1,45.4-117.5c0-79-53.2-148.6-129.5-169c-18.7-5-37.9,6-42.9,24.7c-5,18.7,6.1,37.8,24.8,42.9c45.8,12.2,77.7,54,77.7,101.4c0,41.5-24.4,79-62.3,95.9c-4.2,1.8-7.9,4.4-11.1,7.8c-0.3,0.3-0.6,0.5-0.9,0.8c-2.2,2.4-3.7,5.2-5.2,8.3c-0.7,1.5-1.5,2.9-2,4.4c-0.3,0.8-0.8,1.4-1,2.2c-0.3,1.4,0,2.8-0.1,4.2c-0.3,2.7-0.6,5.4-0.3,8.1c0.1,1.4,0.6,2.7,0.9,4c0.5,2.2,0.5,4.5,1.4,6.6c5.1,11.5,15.6,18.6,27.2,20.2C854.9,529.2,920,612.2,920,709.1v54.1c0,19.3,15.6,35,35,35c19.3,0,35-15.7,35-35v-54.1C990,602.1,930.6,507.8,839.5,460.6z"/><path d="M629.4,473.2c49.1-38.5,80.7-98.1,80.7-165.1c0-115.8-94.3-210-210.1-210c-115.8,0-210,94.2-210,210c0,67.1,31.7,126.6,80.7,165.1C241.6,524.8,150,650.9,150,798.2v103.7h700.2V798.2C850.1,650.9,758.5,524.8,629.4,473.2z M360,308.1c0-77.2,62.8-140,140-140c77.2,0,140,62.8,140,140c0,77.3-62.8,140-140,140C422.8,448.1,360,385.3,360,308.1z M780.1,833.2H220v-35c0-154.4,125.6-280,280.1-280c154.4,0,279.9,125.6,279.9,280L780.1,833.2L780.1,833.2z"/></g>
</svg>